<?xml version="1.0" encoding="utf-8"?>
<!-- Generator: Adobe Illustrator 24.2.3, SVG Export Plug-In . SVG Version: 6.00 Build 0)  -->
<svg version="1.1" id="Layer_1" xmlns="http://www.w3.org/2000/svg" xmlns:xlink="http://www.w3.org/1999/xlink" x="0px" y="0px"
	 viewBox="0 0 577.4 507.49" style="enable-background:new 0 0 577.4 507.49;" xml:space="preserve">
<style type="text/css">
	.st0{fill:#FFDA05;}
	.st1{fill:#363A7E;}
	.st2{fill:#2B317F;}
</style>
<g>
	<g>
		<g>
			<polygon class="st0" points="394.31,442.01 180.26,442.01 149.17,495.86 425.4,495.86 			"/>
			<polygon class="st1" points="425.54,17.08 149.04,17.08 10.79,256.53 149.04,495.99 149.18,495.99 180.27,442.15 180.13,442.15 
				72.97,256.53 180.13,70.92 394.45,70.92 501.62,256.53 394.45,442.15 394.32,442.15 425.41,495.99 425.54,495.99 563.79,256.53 
							"/>
		</g>
		<g>
			<path class="st1" d="M230.77,172.77l-0.26,1.54c-0.77,4.64-0.1,7.46,3.57,7.46c3.12,0,4.72-2.37,5.62-6.93
				c0.99-5.18,0.32-8.36-5.1-14.49c-6.16-6.93-7.85-10.63-6.37-18.64c1.45-7.94,5.93-12.05,13.24-12.05
				c11.36,0,12.56,8.28,11.39,15.11l-0.19,1.13h-8.78l0.19-1.14c0.72-4.25,0.7-7.77-2.8-7.77c-2.59,0-3.94,1.75-4.5,5.23
				c-0.67,4.07,0.01,6.57,4.1,11.27c7.72,8.8,9.25,13.83,7.53,22.14c-1.82,8.71-6.2,13.37-15.14,13.37
				c-10.11,0-13.28-6.25-11.48-15.34l0.18-0.9H230.77z"/>
			<path class="st1" d="M272.54,130.52l-12.26,57.66h-8.72l12.25-57.66H272.54z"/>
			<path class="st1" d="M280.91,130.52h10.38c12.82,0,14.74,7.74,12.17,19.71l-4.64,21.66c-2.21,10.24-5.02,16.29-17.06,16.29
				h-13.11L280.91,130.52z M278.81,180.93h2.82c5.18,0,7.08-2.76,8.41-9.12l5.21-24.49c1.31-6.03,0.95-9.48-4.52-9.48h-2.7
				L278.81,180.93z"/>
			<path class="st1" d="M335.73,166.73c2.11-9.8,4.63-21.24,6.24-27.85h-0.09c-3.39,10-11.3,32.6-17.25,49.29h-8.15
				c1.33-14.98,3.3-38.87,4.28-49.37h-0.17c-1.28,6.72-4.01,19-6.01,28.92l-4.05,20.45h-8.11l12.25-57.66h13.23
				c-1.39,16.78-2.51,31.56-3.49,39.77h0.09c2.69-8.18,9.71-27.46,14.51-39.77h12.94l-12.25,57.66h-8.51L335.73,166.73z"/>
			<path class="st1" d="M182.67,246.85l-0.26,1.05c-1.96,7.83-3.68,16.2-15.43,16.2c-10.3,0-12.51-6.79-10.45-16.37l5.63-26.33
				c2.25-10.37,5.16-16.63,14.85-16.63c12.43,0,12.42,9.19,10.7,16.13l-0.19,0.78h-8.78l0.48-2.23c0.99-4.65,0.55-7.13-2.68-7.13
				c-2.88,0-3.94,2.34-5.03,7.41l-6.16,29.03c-1,4.85-0.92,7.88,2.53,7.88c2.96,0,4.08-2.46,5.28-7.64l0.5-2.13H182.67z"/>
			<path class="st1" d="M196.75,205.59h8.72l-4.9,23.01h9.15l4.9-23.01h8.79l-12.25,57.66h-8.79l5.62-26.64h-9.15l-5.62,26.64h-8.72
				L196.75,205.59z"/>
			<path class="st1" d="M230.87,247.73l-5.29,15.52h-9.19c0.83-2.19,20.05-55.21,20.98-57.66h13.06l-3.18,57.66h-8.79l1.04-15.52
				H230.87z M240.04,239.65c0.69-8.8,1.41-19.67,1.93-26.04h-0.32c-1.32,5.11-5.08,17.08-8,26.04H240.04z"/>
			<path class="st1" d="M285.58,241.8c2.11-9.8,4.63-21.24,6.24-27.85h-0.09c-3.39,10-11.29,32.6-17.25,49.29h-8.15
				c1.33-14.98,3.3-38.87,4.28-49.37h-0.17c-1.28,6.72-4.01,19-6.01,28.92l-4.05,20.45h-8.11l12.25-57.66h13.23
				c-1.39,16.78-2.51,31.56-3.49,39.77h0.09c2.69-8.18,9.71-27.46,14.51-39.77h12.94l-12.25,57.66h-8.51L285.58,241.8z"/>
			<path class="st1" d="M310.17,205.59h11.1c9.48,0,13.54,5.69,11.62,15.36l-0.78,3.96c-1.79,9.2-5.65,13.85-16.83,13.85h-3.47
				l-5.17,24.48h-8.72L310.17,205.59z M313.4,231.52h2.93c4.83,0,6.06-2.45,7.07-7.09l0.7-3.34c0.98-4.55,1.01-8.17-3.9-8.17h-2.89
				L313.4,231.52z"/>
			<path class="st1" d="M349.88,205.59l-12.26,57.66h-8.72l12.25-57.66H349.88z"/>
			<path class="st1" d="M380.79,221.36l-5.72,27.03c-2.06,9.82-5.15,15.7-15.77,15.7c-10.28,0-13.2-6.67-11.17-16.61l5.88-28.37
				c2.03-9.85,7.18-14.36,15.25-14.36C378.57,204.75,383.04,210.87,380.79,221.36z M362.95,219.18l-6.25,29.82
				c-0.9,4.14-0.56,7.62,3.54,7.62c3.38,0,4.82-2.84,5.8-7.32l6.25-29.75c0.89-4.24,0.1-7.24-3.78-7.24
				C365.62,212.3,363.89,214.56,362.95,219.18z"/>
			<path class="st1" d="M379.06,263.25l12.25-57.66h10.29c0.47,17.41,1.04,37.37,0.96,40.08h0.1c1.25-7.55,2.66-15.64,4.65-25.11
				l3.17-14.97h8.27l-12.26,57.66h-9.97c-0.39-14.69-1.1-38.53-1.04-40.93h-0.09c-1.13,7.06-2.5,14.8-4.67,25.16l-3.31,15.77H379.06
				z"/>
			<path class="st1" d="M194.35,322.8l-5.29,15.52h-9.19c0.83-2.19,20.05-55.21,20.98-57.66h13.06l-3.18,57.66h-8.79l1.04-15.52
				H194.35z M203.53,314.72c0.69-8.8,1.41-19.67,1.93-26.04h-0.32c-1.32,5.11-5.08,17.08-8,26.04H203.53z"/>
			<path class="st1" d="M218.11,338.32l4.52-57.66h8.8c-1.34,12.36-3.67,31.79-5.49,42.56h0.16c3.76-11.49,10.2-29.25,14.56-42.56
				h8.24c-1.18,13.06-2.99,32.01-4.31,43.43h0.18c2.73-10.96,8.8-30.37,12.78-43.43h9.05l-20.6,57.66h-8.96
				c1.17-12.17,2.28-27.58,3.67-39.44l-0.16,0.01c-3.86,12.08-9.3,27-13.58,39.43H218.11z"/>
			<path class="st1" d="M267.73,322.8l-5.29,15.52h-9.19c0.83-2.19,20.05-55.21,20.98-57.66h13.06l-3.18,57.66h-8.79l1.04-15.52
				H267.73z M276.9,314.72c0.69-8.8,1.41-19.67,1.93-26.04h-0.32c-1.32,5.11-5.08,17.08-8,26.04H276.9z"/>
			<path class="st1" d="M303.71,312.66l-5.45,25.66h-8.72l12.25-57.66h11.17c9.1,0,13.37,4.86,11.39,14.66l-0.63,3.06
				c-1.57,7.76-4.74,9.98-8.08,10.88c2.31,1.6,4.31,4.25,2.33,13.19c-1.1,4.85-2.63,12.37-2.79,15.86h-8.65
				c0.1-3.5,1.69-10.77,3.14-17.62c1.26-6.02,0.6-8.03-3.81-8.03H303.71z M305.24,305.33h1.9c5.01,0,6.73-1.45,7.87-7.49l0.55-3
				c0.82-4.37,0.26-6.85-4.18-6.85h-2.45L305.24,305.33z"/>
			<path class="st1" d="M333.83,280.66h10.38c12.82,0,14.74,7.74,12.17,19.71l-4.64,21.66c-2.21,10.24-5.02,16.29-17.06,16.29
				h-13.11L333.83,280.66z M331.73,331.07h2.82c5.18,0,7.08-2.76,8.41-9.12l5.21-24.49c1.31-6.03,0.95-9.48-4.52-9.48h-2.7
				L331.73,331.07z"/>
			<path class="st1" d="M365.26,322.91l-0.26,1.54c-0.77,4.64-0.1,7.46,3.57,7.46c3.12,0,4.72-2.37,5.62-6.93
				c0.99-5.18,0.32-8.36-5.1-14.49c-6.16-6.93-7.85-10.63-6.37-18.64c1.45-7.94,5.93-12.05,13.24-12.05
				c11.36,0,12.56,8.28,11.39,15.11l-0.19,1.13h-8.78l0.19-1.14c0.72-4.25,0.7-7.77-2.8-7.77c-2.59,0-3.94,1.75-4.5,5.23
				c-0.67,4.07,0.01,6.57,4.1,11.27c7.72,8.8,9.25,13.83,7.53,22.14c-1.82,8.71-6.2,13.37-15.14,13.37
				c-10.11,0-13.28-6.25-11.48-15.34l0.18-0.9H365.26z"/>
		</g>
	</g>
	<g>
		<g>
			<path class="st2" d="M237.87,365.41c1.36-0.08,2.63-0.11,4.02-0.03v7.17c-0.96-0.96-2.41-1.39-4.19-1.39
				c-3.14,0-6.14,1.22-7.7,1.93l-0.45-5.78C230.56,366.83,233.77,365.61,237.87,365.41z M234.98,388.97
				c4.7-4.08,8.47-7.36,8.47-12.12v-11.24c5.04,0.85,8.72,3.74,8.72,9.88c0,7.33-5.01,11.36-9.83,15.18l-3.37,2.69v5.78h-9.37v-5.58
				L234.98,388.97z M252.82,393.36v5.78h-12.29v-5.78H252.82z"/>
			<path class="st2" d="M257.83,382.49c0-8.81,2.44-14.5,8.5-16.42v16.42c0,5.07,0,11.41,5.01,11.41c1.59,0,2.66-0.65,3.37-1.84
				v7.22c-0.99,0.28-2.18,0.42-3.4,0.42C261.48,399.7,257.83,393.42,257.83,382.49z M271.25,371.05c-1.56,0-2.66,0.65-3.37,1.84
				v-7.22c1.02-0.28,2.18-0.43,3.43-0.43c9.8,0,13.48,6.29,13.48,17.24c0,8.78-2.44,14.47-8.49,16.4v-16.4
				C276.29,377.42,276.29,371.05,271.25,371.05z"/>
			<path class="st2" d="M297.66,365.41c1.36-0.08,2.63-0.11,4.02-0.03v7.17c-0.96-0.96-2.41-1.39-4.19-1.39
				c-3.14,0-6.14,1.22-7.7,1.93l-0.45-5.78C290.35,366.83,293.55,365.61,297.66,365.41z M294.77,388.97
				c4.7-4.08,8.47-7.36,8.47-12.12v-11.24c5.04,0.85,8.72,3.74,8.72,9.88c0,7.33-5.01,11.36-9.83,15.18l-3.37,2.69v5.78h-9.37v-5.58
				L294.77,388.97z M312.61,393.36v5.78h-12.29v-5.78H312.61z"/>
			<path class="st2" d="M317.61,382.49c0-8.81,2.44-14.5,8.5-16.42v16.42c0,5.07,0,11.41,5.01,11.41c1.59,0,2.66-0.65,3.37-1.84
				v7.22c-0.99,0.28-2.18,0.42-3.4,0.42C321.26,399.7,317.61,393.42,317.61,382.49z M331.03,371.05c-1.56,0-2.66,0.65-3.37,1.84
				v-7.22c1.02-0.28,2.18-0.43,3.43-0.43c9.8,0,13.48,6.29,13.48,17.24c0,8.78-2.44,14.47-8.49,16.4v-16.4
				C336.07,377.42,336.07,371.05,331.03,371.05z"/>
		</g>
	</g>
</g>
</svg>
