<?xml version="1.0" encoding="utf-8"?>
<!-- Generator: Adobe Illustrator 26.2.0, SVG Export Plug-In . SVG Version: 6.00 Build 0)  -->
<svg version="1.1" id="Layer_1" xmlns="http://www.w3.org/2000/svg" xmlns:xlink="http://www.w3.org/1999/xlink" x="0px" y="0px"
	 viewBox="0 0 1920 8052" style="enable-background:new 0 0 1920 8052;" xml:space="preserve">
<style type="text/css">
	.st0{fill-rule:evenodd;clip-rule:evenodd;fill:#5B7742;}
	.st1{fill-rule:evenodd;clip-rule:evenodd;fill:#BACC6D;}
	.st2{fill-rule:evenodd;clip-rule:evenodd;fill:#4C5D34;}
</style>
<path class="st0" d="M396.9,441.9c34.4,10.2-45.9,46.3-56.1,80.8l-87.9,636l1464,1241.6l-529.1,452.6l-655.5,423.9l-402.6,481.3
	l-529,452.6l631.7,1022.1L70,5423.7l-167.4,47.5l30.4,101L-286.4,6043l1412.9,535.7l86.2,532.9L1614,8202.2h-116.5l-400.2-1029.4
	l-57.8-556.1l-1711.1-511.3l382.8-461.4l191.4-230.7l15.4,29.8l139.2-47l92.3-134.5l-55.5-79l-540.8-984.9L1431,2320.2L104,1203.8
	l212.1-718C326.3,451.4,362.5,431.7,396.9,441.9z"/>
<path class="st1" d="M396.9,441.9c34.4,10.2-45.9,46.3-56.1,80.8l-87.9,796l1532,1027.6l-523.5,432.1L738,3210.5l-70.5,64.2
	l-342,116.5l19.9,143.3l-130.9,108L-309,4074.7l596.5,1106l-182,137.5l-171,191.5l-70.5,594.5l714.5,405H1038l482.5,1693h-78
	l-443-1656.5l-469-16L-236,6154.2l112-707l206.5-152l107-114.5L-435,4108.2l542.8-436.4l173.8-151.1v-182l369-103.2l542.8-436.4
	l542.8-436.4L104,1363.8l212.1-878C326.3,451.4,362.5,431.7,396.9,441.9z"/>
<path class="st2" d="M1612.5,6884.5c-30.6-18.7-87.7,30.6-69,0l-2135.3-834.3l730-873l-491-962l504.8-602l33.5-165l218.9-136
	l252.4-301l983-748.5l-1289.4-794l-377.6-356.9L527.5-31.8H664L113.7,1111.7l283.9,335.9l1458.1,815L731.2,3011.2l-208.4,293.4
	L260,3490.2l-59,165l-263,237.5l-40.3,292l318.5,992.5l-411.5,453.5l155.5,480.5C-58.5,6141.9,1643.1,6903.2,1612.5,6884.5z"/>
</svg>
